<svg width="28" height="24" viewBox="0 0 28 24" fill="none" xmlns="http://www.w3.org/2000/svg">
<path d="M18.6 24L12.9333 18.3333L14.8 16.4667L18.6 20.2667L26.1333 12.7333L28 14.6L18.6 24ZM13.3333 9.33333L24 2.66667H2.66667L13.3333 9.33333ZM13.3333 12L2.66667 5.33333V18.6667H9.53333L12.2 21.3333H2.66667C1.93333 21.3333 1.30556 21.0722 0.783333 20.55C0.261111 20.0278 0 19.4 0 18.6667V2.66667C0 1.93333 0.261111 1.30556 0.783333 0.783333C1.30556 0.261111 1.93333 0 2.66667 0H24C24.7333 0 25.3611 0.261111 25.8833 0.783333C26.4056 1.30556 26.6667 1.93333 26.6667 2.66667V8.46667L24 11.1333V5.33333L13.3333 12Z" fill="#004AC6"/>
</svg>
